<svg width="240" height="150" viewBox="0 0 240 150" fill="none" xmlns="http://www.w3.org/2000/svg">
<path d="M120.265 39.5206C121.48 37.1929 123.61 34.6968 127.336 33.0717C129.934 31.9372 133.082 31.3442 136.691 31.293C136.866 31.293 137.035 31.2857 137.218 31.2857C137.225 31.2857 137.232 31.2857 137.232 31.2857C145.123 31.2857 152.29 34.4113 156.901 39.8647C159.463 42.8878 161.088 46.4161 161.718 50.1712C161.893 51.218 161.988 52.2867 162.01 53.3627C162.018 53.6702 162.018 53.9776 162.01 54.285C161.988 55.3684 161.886 56.4591 161.703 57.5497C161.666 57.7547 161.688 57.9523 161.754 58.1353C162.04 57.6815 162.179 57.4107 162.186 57.396C162.384 56.9861 162.882 56.8177 163.284 57.0154C163.694 57.213 163.862 57.7035 163.665 58.1134C163.635 58.1793 163.489 58.4721 163.204 58.9405C163.672 58.8307 164.053 58.4647 164.141 57.9597C164.324 56.8836 164.426 55.8149 164.47 54.7535C164.477 54.4973 164.492 54.2338 164.499 53.9776C164.507 53.5677 164.492 53.1578 164.477 52.7478C164.448 51.9719 164.375 51.196 164.265 50.4347C163.65 45.9988 161.798 41.8264 158.79 38.2689C156.367 35.4068 153.314 33.1303 149.852 31.5272C146.046 29.7631 141.749 28.8115 137.24 28.8115C137.232 28.8115 137.225 28.8115 137.218 28.8115C133.045 28.8115 129.385 29.485 126.348 30.8099C117.944 34.4699 116.48 41.9289 116.224 44.5714C117.359 42.7122 118.713 41.0066 120.265 39.5206Z" fill="#54565A"/>
<path d="M92.683 96.8946L93.781 101.967C99.9957 100.511 104.637 94.9401 104.637 88.2789C104.637 87.8763 104.607 87.4811 104.578 87.0858C109.643 85.1972 110.756 81.0834 110.756 81.0834C107.308 82.6718 104.475 82.3717 103.187 82.0936C100.896 77.4234 96.1087 74.2026 90.5602 74.2026C82.7864 74.2026 76.4912 80.5051 76.4912 88.2716C76.4912 90.5847 77.0622 92.7661 78.0504 94.6912H89.96C91.2776 94.7059 92.4048 95.6136 92.683 96.8946ZM97.8436 86.9248C98.8977 86.9248 99.7468 87.7739 99.7468 88.8279C99.7468 89.882 98.8977 90.7311 97.8436 90.7311C96.7895 90.7311 95.9404 89.882 95.9404 88.8279C95.9404 87.7739 96.7895 86.9248 97.8436 86.9248ZM83.2915 90.7311C82.2374 90.7311 81.3883 89.882 81.3883 88.8279C81.3883 87.7739 82.2374 86.9248 83.2915 86.9248C84.3455 86.9248 85.1947 87.7739 85.1947 88.8279C85.1947 89.882 84.3382 90.7311 83.2915 90.7311ZM88.6643 88.8279C88.6643 87.7739 89.5134 86.9248 90.5675 86.9248C91.6216 86.9248 92.4707 87.7739 92.4707 88.8279C92.4707 89.882 91.6216 90.7311 90.5675 90.7311C89.5134 90.7311 88.6643 89.8747 88.6643 88.8279Z" fill="#FFC423"/>
<path d="M83.2914 86.9248C82.2373 86.9248 81.3882 87.7739 81.3882 88.828C81.3882 89.8821 82.2373 90.7312 83.2914 90.7312C84.3455 90.7312 85.1946 89.8821 85.1946 88.828C85.1946 87.7739 84.3381 86.9248 83.2914 86.9248Z" fill="white"/>
<path d="M90.5675 90.7312C91.6186 90.7312 92.4707 89.8791 92.4707 88.828C92.4707 87.7769 91.6186 86.9248 90.5675 86.9248C89.5164 86.9248 88.6643 87.7769 88.6643 88.828C88.6643 89.8791 89.5164 90.7312 90.5675 90.7312Z" fill="white"/>
<path d="M97.8435 90.7312C98.8946 90.7312 99.7467 89.8791 99.7467 88.828C99.7467 87.7769 98.8946 86.9248 97.8435 86.9248C96.7924 86.9248 95.9403 87.7769 95.9403 88.828C95.9403 89.8791 96.7924 90.7312 97.8435 90.7312Z" fill="white"/>
<path d="M136.149 90.4971L131.786 90.8484C131.596 90.8631 131.413 90.7825 131.296 90.6215C131.179 90.4605 131.157 90.2628 131.23 90.0871L134.546 82.1376C128.653 81.7131 123.537 79.5976 119.708 76.1572C116.063 85.622 110.448 86.7565 110.448 86.7565C110.448 86.7565 116.414 93.8569 132.438 95.6137L136.142 90.5849C136.156 90.5703 136.156 90.5337 136.149 90.4971Z" fill="black"/>
<path d="M127.416 140.463C128.866 139.336 130.154 138.15 131.296 136.927C123.112 134.292 117.79 129.534 114.928 126.306C114.035 127.119 113.428 127.748 113.413 127.763C113.34 127.843 113.245 127.88 113.15 127.909C109.468 132.023 105.573 135.661 101.628 138.26L102.104 140.463H127.416Z" fill="#FED9B0"/>
<path d="M123.881 129.739C123.778 129.593 123.698 129.439 123.625 129.278C123.793 129.893 124.174 130.281 124.496 130.515C124.862 130.786 125.279 130.939 125.681 131.013C124.971 130.808 124.327 130.383 123.881 129.739Z" fill="#FA4616"/>
<path d="M176.043 136.356C176.065 136.276 176.079 136.151 176.094 136.005C175.97 136.459 176.021 136.488 176.043 136.356Z" fill="#FA4616"/>
<path d="M169.938 121.973C169.879 126.833 168.899 134.387 164.272 141.275C161.988 139.804 159.785 138.435 157.589 137.242C153.98 135.273 150.416 133.78 147.129 133.062C143.828 132.33 140.936 132.382 138.316 133.128C137.188 133.45 136.054 133.575 134.948 133.538C134.941 133.692 134.875 133.838 134.744 133.941C134.634 134.029 132.635 135.573 130.542 135.573C129.89 135.573 129.232 135.427 128.617 135.039C127.314 134.219 126.904 133.018 126.86 132.067C126.626 132.125 126.384 132.162 126.128 132.162C125.367 132.162 124.532 131.906 123.844 131.408C122.592 130.5 122.182 129.044 122.644 127.419C122.541 127.426 122.431 127.441 122.329 127.441C121.224 127.441 120.213 126.987 119.496 126.123C118.859 125.362 118.566 124.396 118.632 123.473C117.3 124.264 115.931 125.406 114.936 126.313C117.798 129.542 123.119 134.299 131.303 136.935C131.72 137.066 132.145 137.198 132.577 137.323C132.269 138.391 131.94 139.438 131.589 140.47H144.53C145.885 140.47 147.019 141.393 147.363 142.644H166.366C165.663 142.183 164.968 141.729 164.28 141.29C168.899 134.387 169.879 126.833 169.938 121.973Z" fill="#FA4616"/>
<path d="M132.599 89.6841L137.825 89.2596C138.023 89.2449 138.22 89.3401 138.33 89.5084C138.44 89.6768 138.447 89.8891 138.352 90.0721L136.749 93.0733L142.012 95.95L138.396 82.1812C137.862 82.2104 137.335 82.2397 136.793 82.2397C136.434 82.2397 136.076 82.2324 135.724 82.2178L132.599 89.6841Z" fill="#FA4616"/>
<path d="M142.569 95.9867L151.777 92.9929L151.902 88.2715C151.909 88.1031 151.982 87.9494 152.114 87.8543C152.246 87.7518 152.414 87.7152 152.575 87.7518L158.687 89.1572L156.396 73.1265C155.32 74.4001 154.12 75.564 152.817 76.6108L142.569 95.9867Z" fill="#FA4616"/>
<path d="M156.396 73.1263L158.687 89.157L152.575 87.7516C152.414 87.715 152.246 87.7516 152.114 87.8541C151.982 87.9565 151.902 88.1103 151.902 88.2713L151.777 92.9927L142.569 95.9866L142.203 96.682L142.012 95.95L136.749 93.0732L138.352 90.072C138.447 89.8963 138.44 89.6767 138.33 89.5084C138.221 89.34 138.023 89.2522 137.825 89.2595L132.599 89.6841L135.724 82.2104C135.336 82.1957 134.949 82.1738 134.561 82.1445L131.245 90.094C131.171 90.2697 131.193 90.4746 131.311 90.6283C131.428 90.7821 131.603 90.8699 131.801 90.8553L136.164 90.5039L136.925 90.4453L135.541 93.0439C135.402 93.3074 135.498 93.6368 135.761 93.7832L141.954 97.1724C141.961 97.1797 141.976 97.1724 141.983 97.1797C142.056 97.2163 142.137 97.2383 142.217 97.2383C142.276 97.2383 142.334 97.231 142.386 97.209L152.502 93.9223C152.721 93.8491 152.875 93.6442 152.882 93.4172L153 88.9813L159.236 90.4161C159.412 90.46 159.595 90.4087 159.734 90.2843C159.866 90.1599 159.932 89.9842 159.902 89.8012L158.043 76.7789L157.355 71.9551C157.033 72.3504 156.718 72.7383 156.396 73.1263Z" fill="#CD1900"/>
<path d="M142.203 96.6822L142.569 95.9868L152.817 76.6108C148.813 79.817 143.835 81.8519 138.389 82.1813L142.005 95.9502L142.203 96.6822Z" fill="#F2B888"/>
<path d="M135.724 82.2109C136.076 82.2256 136.435 82.2329 136.793 82.2329C137.335 82.2329 137.869 82.2109 138.396 82.1743C143.835 81.8376 148.82 79.81 152.824 76.6038C154.127 75.5644 155.327 74.3932 156.403 73.1195C156.725 72.7389 157.04 72.3436 157.348 71.9483C158.709 70.133 159.829 68.1273 160.671 65.9826C168.357 66.2241 171.19 55.0465 166.161 51.4231C165.517 50.9546 164.88 50.6399 164.265 50.4276C164.375 51.1962 164.448 51.9648 164.477 52.7407C164.587 52.7334 164.697 52.7261 164.807 52.7261C164.851 52.7261 164.895 52.7261 164.938 52.7261C165.275 52.7334 165.546 53.0116 165.546 53.3483C165.546 53.685 165.283 53.9705 164.924 53.9558C164.887 53.9558 164.851 53.9558 164.814 53.9558C164.704 53.9558 164.609 53.9705 164.499 53.9778C164.499 54.234 164.485 54.4975 164.47 54.7537C166.117 55.5077 167.427 57.1473 167.076 59.1237C166.629 61.6711 164.829 63.1717 162.142 63.2668C161.447 63.2888 160.781 63.1497 160.181 62.8789C157.597 65.6824 153.366 69.1814 146.887 71.8385C146.946 72.2851 146.836 72.7243 146.485 73.0317C145.24 74.1297 142.452 75.4692 139.963 75.4692C137.474 75.4692 137.371 72.7828 138.967 71.9337C138.967 71.9337 141.654 71.1871 143.842 70.1915C144.691 69.8036 145.46 69.9793 146.016 70.4038C152.209 67.8931 156.294 64.5478 158.804 61.876C157.933 60.9171 157.509 59.5337 157.919 57.9525C158.409 56.0567 159.273 55.0099 160.444 54.5488C160.869 54.0803 161.381 53.663 161.996 53.3483C161.974 52.2722 161.879 51.2035 161.703 50.1568C157.436 50.6545 156.594 54.7537 156.594 54.7537C127.424 59.8045 121.494 38.518 121.465 38.4229C121.048 38.7742 120.638 39.1329 120.243 39.5135C118.684 40.9995 117.337 42.6977 116.202 44.557C113.721 48.6489 112.33 53.524 112.33 58.626C112.33 65.9606 115.082 72.0142 119.701 76.1573C123.529 79.5904 128.639 81.7059 134.539 82.1377C134.941 82.1743 135.329 82.1963 135.724 82.2109ZM136.303 58.055C136.976 58.055 137.525 58.8236 137.525 59.7752C137.525 60.7268 136.976 61.4954 136.303 61.4954C135.629 61.4954 135.08 60.7268 135.08 59.7752C135.08 58.8236 135.629 58.055 136.303 58.055ZM121.158 58.055C121.831 58.055 122.373 58.8236 122.373 59.7752C122.373 60.7268 121.831 61.4954 121.158 61.4954C120.484 61.4954 119.943 60.7268 119.943 59.7752C119.943 58.8236 120.492 58.055 121.158 58.055ZM122.812 66.5535C122.739 66.4071 122.739 66.2314 122.812 66.0777L126.743 57.8135C126.875 57.5426 127.197 57.4255 127.475 57.5573C127.746 57.689 127.863 58.0184 127.738 58.2893L124.1 65.9313L128.317 66.9049C128.609 66.9708 128.8 67.2709 128.727 67.5637C128.668 67.8199 128.441 67.9882 128.192 67.9882C128.148 67.9882 128.112 67.9809 128.068 67.9736L123.185 66.8463C123.024 66.8097 122.885 66.7072 122.812 66.5535ZM131.274 76.4501C126.604 76.4501 125.586 72.0655 125.447 71.3261C125.403 71.2163 125.396 71.0919 125.433 70.9748C125.579 70.5136 125.996 70.5795 126.399 70.6381C130.037 71.2017 133.324 71.0919 136.156 70.3233C136.317 70.2794 136.493 70.3087 136.625 70.4111C136.757 70.5136 136.844 70.6673 136.844 70.8357C136.844 70.8869 136.984 76.2305 131.581 76.4501C131.479 76.4428 131.376 76.4501 131.274 76.4501Z" fill="#FED9B0"/>
<path d="M156.908 39.8573C152.297 34.404 145.131 31.2783 137.24 31.2783C137.232 31.2783 137.225 31.2783 137.225 31.2783C137.049 31.2783 136.874 31.2856 136.698 31.2856C126.069 32.8375 121.487 38.4226 121.487 38.4226C121.487 38.4226 121.487 38.4226 121.487 38.4299C121.516 38.5324 127.446 59.8116 156.616 54.7608C156.616 54.7608 157.457 50.6543 161.725 50.1639C161.088 46.4087 159.463 42.8878 156.908 39.8573Z" fill="black"/>
<path d="M158.79 38.2617C161.798 41.8192 163.643 45.9843 164.265 50.4275C164.88 50.6325 165.517 50.9546 166.161 51.423C171.19 55.0537 168.35 66.224 160.671 65.9825C159.822 68.1272 158.702 70.1329 157.348 71.9482L158.036 76.7721C159.441 78.3239 160.759 79.9197 161.981 81.5594C163.855 82.2987 168.393 84.3922 173.722 89.0697C183.326 84.5386 186.73 79.5098 186.73 79.5098C167.003 74.276 179.11 38.5472 154.961 32.5521C153.183 32.1129 151.492 31.7762 149.867 31.52C153.314 33.1304 156.374 35.3996 158.79 38.2617Z" fill="black"/>
<path d="M164.499 53.9773C164.602 53.97 164.704 53.9553 164.814 53.9553C164.851 53.9553 164.887 53.9553 164.924 53.9553C165.282 53.97 165.546 53.6918 165.546 53.3478C165.546 53.0037 165.282 52.7256 164.938 52.7256C164.895 52.7256 164.851 52.7256 164.807 52.7256C164.69 52.7256 164.587 52.7402 164.477 52.7402C164.492 53.1575 164.499 53.5674 164.499 53.9773Z" fill="#F2B888"/>
<path d="M162.01 53.3555C161.388 53.6702 160.883 54.0875 160.459 54.5559C160.927 54.3729 161.447 54.2851 162.01 54.2778C162.018 53.9703 162.018 53.6629 162.01 53.3555Z" fill="#F2B888"/>
<path d="M121.158 61.4877C121.831 61.4877 122.373 60.7192 122.373 59.7676C122.373 58.816 121.831 58.0474 121.158 58.0474C120.484 58.0474 119.943 58.816 119.943 59.7676C119.943 60.7192 120.491 61.4877 121.158 61.4877Z" fill="black"/>
<path d="M136.303 61.4877C136.976 61.4877 137.525 60.7192 137.525 59.7676C137.525 58.816 136.976 58.0474 136.303 58.0474C135.629 58.0474 135.08 58.816 135.08 59.7676C135.08 60.7192 135.629 61.4877 136.303 61.4877Z" fill="black"/>
<path d="M128.185 67.9954C128.434 67.9954 128.661 67.8271 128.719 67.5709C128.785 67.2781 128.602 66.978 128.309 66.9121L124.093 65.9385L127.731 58.2965C127.863 58.0256 127.746 57.6962 127.467 57.5645C127.189 57.4327 126.867 57.5498 126.735 57.8207L122.805 66.0849C122.731 66.2387 122.731 66.407 122.805 66.5607C122.878 66.7071 123.017 66.8169 123.178 66.8535L128.06 67.9808C128.104 67.9881 128.148 67.9954 128.185 67.9954Z" fill="black"/>
<path d="M137.24 111.066C137.357 106.411 137.123 101.982 137.123 101.924C137.108 101.624 136.83 101.389 136.544 101.404C136.244 101.419 136.01 101.682 136.025 101.982C136.025 102.041 136.259 106.513 136.142 111.161C136.5 111.125 136.866 111.096 137.24 111.066Z" fill="#CD1900"/>
<path d="M112.623 127.009C112.769 126.855 116.136 123.334 119.093 121.988C119.555 121.307 121.677 118.745 128.734 116.322C129.019 116.227 129.334 116.373 129.429 116.666C129.524 116.951 129.371 117.266 129.085 117.361C121.531 119.953 119.964 122.646 119.95 122.676C119.511 123.51 119.664 124.615 120.33 125.413C121.026 126.24 122.065 126.533 123.207 126.211C123.881 125.611 127.804 122.288 132.935 121.453C133.236 121.409 133.514 121.607 133.565 121.907C133.616 122.207 133.411 122.485 133.111 122.537C128.302 123.32 124.51 126.533 123.939 127.031C123.507 127.99 123.471 128.722 123.617 129.278C123.69 129.432 123.771 129.593 123.873 129.739C124.327 130.384 124.964 130.815 125.667 131.013C126.267 131.116 126.823 131.02 127.109 130.75C129.561 128.429 132.709 127.024 135.966 126.782C136.266 126.76 136.53 126.987 136.551 127.287C136.573 127.587 136.347 127.851 136.046 127.873C133.096 128.092 130.242 129.351 127.987 131.438C127.914 131.884 127.811 133.238 129.188 134.102C131.135 135.325 134.026 133.099 134.055 133.07C134.297 132.88 134.641 132.924 134.824 133.165C134.912 133.275 134.941 133.407 134.934 133.531C136.046 133.568 137.181 133.443 138.301 133.121C140.922 132.382 143.813 132.331 147.114 133.055C150.401 133.78 153.958 135.266 157.574 137.235C159.77 138.428 161.974 139.79 164.258 141.268C168.884 134.38 169.865 126.826 169.923 121.966C169.748 121.87 169.645 121.812 169.638 121.812C169.338 121.651 169.228 121.278 169.389 120.977C169.396 120.955 169.418 120.948 169.426 120.934C168.906 120.582 168.393 120.238 167.852 119.901C163.387 117.083 158.402 114.441 152.604 112.706C148.337 111.41 143.513 110.722 138.623 110.993C138.616 110.993 138.616 110.993 138.608 110.993C138.572 110.993 138.535 111 138.499 111C138.477 111 138.455 111 138.44 111C138.03 111.015 137.628 111.044 137.225 111.066C136.852 111.088 136.493 111.125 136.127 111.154C128.141 111.893 121.406 114.587 116.524 117.244C111.202 120.143 108.069 122.99 107.886 123.21C106.745 124.623 106.964 126.687 108.37 127.836C108.984 128.334 109.716 128.583 110.456 128.583C111.239 128.583 112.008 128.29 112.623 127.763C112.425 127.551 112.418 127.221 112.623 127.009Z" fill="#FED9B0"/>
<path d="M144.523 140.463H131.581H127.424H102.118L102.667 142.996C103.041 144.723 101.723 146.363 99.9517 146.363H144.53C146.155 146.363 147.48 145.045 147.48 143.413C147.48 143.142 147.429 142.886 147.363 142.637C147.012 141.385 145.884 140.463 144.523 140.463Z" fill="#707372"/>
<path d="M102.66 142.996L102.111 140.463L101.635 138.26L93.781 101.975L92.683 96.9021C92.4048 95.6211 91.2775 94.7134 89.9673 94.7134H78.0576H15.7793C14.0079 94.7134 12.6903 96.3457 13.0636 98.0806L23.0407 144.182C23.3189 145.463 24.4462 146.37 25.7564 146.37H68.3367H99.9517C101.716 146.356 103.041 144.723 102.66 142.996ZM62.0196 125.15C61.1558 126.607 59.5601 127.624 57.8618 127.719C52.9062 127.997 49.9709 120.692 53.1112 117.142C54.0189 116.11 55.2779 115.509 56.5589 115.385C57.979 115.246 59.4356 115.685 60.519 116.768C62.5832 118.833 63.5787 122.515 62.0196 125.15Z" fill="#96989A"/>
<path d="M56.5589 115.378C55.2706 115.502 54.0189 116.11 53.1112 117.134C49.9709 120.685 52.9063 127.997 57.8619 127.712C59.5528 127.617 61.1559 126.599 62.0196 125.142C63.5788 122.515 62.5833 118.833 60.519 116.754C59.443 115.678 57.979 115.238 56.5589 115.378Z" fill="#D0CFCD"/>
<path d="M184.637 131.079C184.878 131.32 184.878 131.708 184.637 131.95C184.519 132.074 184.358 132.133 184.197 132.133C184.044 132.133 183.883 132.074 183.765 131.957C178.773 127.001 171.453 122.822 169.938 121.98C169.879 126.84 168.899 134.395 164.272 141.283C164.96 141.722 165.656 142.176 166.359 142.637C167.2 143.186 168.049 143.742 168.928 144.321C169.96 144.994 171.043 145.689 172.244 146.414C173.466 147.139 174.747 147.9 176.665 148.713C177.661 149.108 178.781 149.562 180.632 149.854C181.562 149.986 182.704 150.081 184.139 149.898C185.552 149.723 187.294 149.188 188.787 148.207C190.288 147.241 191.407 145.982 192.118 144.892C192.835 143.786 193.23 142.82 193.516 141.993C194.043 140.36 194.174 139.175 194.262 138.142C194.409 136.093 194.292 134.57 194.16 133.092C194.013 131.642 193.823 130.295 193.603 129C193.53 128.575 193.457 128.158 193.377 127.741C191.473 128.561 188.245 129.637 183.692 130.178C184.014 130.471 184.329 130.771 184.637 131.079ZM176.094 136.005C176.079 136.151 176.065 136.276 176.043 136.356C176.021 136.488 175.97 136.459 176.094 136.005Z" fill="#FED9B0"/>
<path d="M173.708 89.0769C168.379 84.3921 163.84 82.2986 161.966 81.5666C160.744 79.9269 159.434 78.3238 158.021 76.7793L159.88 89.8015C159.91 89.9772 159.844 90.1602 159.712 90.2846C159.58 90.4091 159.39 90.453 159.214 90.4164L152.978 88.9817L152.86 93.4176C152.853 93.6518 152.699 93.8568 152.48 93.9227L142.364 97.2093C142.305 97.224 142.246 97.2386 142.195 97.2386C142.115 97.2386 142.034 97.2167 141.961 97.1801C141.954 97.1727 141.939 97.1801 141.932 97.1727L135.739 93.7836C135.475 93.6372 135.373 93.3078 135.519 93.0443L136.903 90.4457L136.142 90.5042C136.142 90.5408 136.149 90.5775 136.149 90.6141L132.445 95.6429L116.524 117.259C121.406 114.602 128.141 111.908 136.127 111.169C136.251 106.52 136.017 102.048 136.01 101.989C135.995 101.689 136.222 101.426 136.53 101.411C136.815 101.389 137.093 101.623 137.108 101.931C137.108 101.989 137.342 106.418 137.225 111.073C137.628 111.044 138.03 111.022 138.44 111.007C138.462 111.007 138.484 111.007 138.499 111.007C138.535 111.007 138.572 111 138.608 111C138.616 111 138.616 111 138.623 111C143.513 110.729 148.337 111.417 152.604 112.713C158.409 114.448 163.387 117.098 167.852 119.909C168.386 120.245 168.906 120.597 169.426 120.941C169.601 120.685 169.938 120.589 170.216 120.736L170.223 120.743C169.367 114.55 164.463 106.813 164.411 106.733C164.25 106.476 164.323 106.14 164.58 105.971C164.836 105.81 165.173 105.884 165.341 106.14C165.561 106.484 170.765 114.689 171.387 121.226C171.395 121.285 171.38 121.336 171.373 121.387C173.752 122.756 179.329 126.153 183.677 130.186C188.238 129.644 191.459 128.568 193.362 127.748C194.738 127.155 195.433 126.709 195.433 126.709C189.995 107.011 181.094 95.5624 173.708 89.0769Z" fill="#FA4616"/>
<path d="M171.387 121.38C171.395 121.329 171.409 121.278 171.402 121.219C170.772 114.682 165.575 106.477 165.356 106.133C165.195 105.876 164.858 105.803 164.594 105.964C164.338 106.125 164.265 106.469 164.426 106.725C164.477 106.806 169.382 114.543 170.238 120.736C170.297 120.765 170.707 120.992 171.387 121.38Z" fill="#CD1900"/>
<path d="M169.653 121.819C169.66 121.826 169.762 121.877 169.938 121.973C171.453 122.814 178.781 126.994 183.765 131.95C183.883 132.067 184.044 132.125 184.197 132.125C184.358 132.125 184.512 132.067 184.637 131.942C184.878 131.701 184.878 131.313 184.637 131.071C184.329 130.771 184.014 130.471 183.692 130.171C179.344 126.145 173.766 122.748 171.387 121.372C170.707 120.977 170.289 120.757 170.245 120.728L170.238 120.721C169.96 120.574 169.616 120.67 169.448 120.926C169.433 120.94 169.418 120.955 169.411 120.97C169.243 121.284 169.352 121.658 169.653 121.819Z" fill="#F2B888"/>
<path d="M114.928 126.306C115.931 125.398 117.293 124.256 118.625 123.466C118.559 124.388 118.852 125.354 119.489 126.116C120.213 126.979 121.216 127.433 122.321 127.433C122.424 127.433 122.534 127.419 122.636 127.411C122.175 129.044 122.585 130.493 123.837 131.401C124.525 131.899 125.352 132.155 126.121 132.155C126.377 132.155 126.618 132.118 126.853 132.06C126.896 133.011 127.306 134.219 128.609 135.031C129.224 135.419 129.883 135.566 130.535 135.566C132.635 135.566 134.626 134.021 134.736 133.933C134.868 133.831 134.934 133.685 134.941 133.531C134.948 133.399 134.919 133.275 134.831 133.165C134.648 132.931 134.297 132.887 134.063 133.07C134.033 133.092 131.142 135.317 129.195 134.102C127.811 133.231 127.914 131.877 127.994 131.437C130.249 129.358 133.104 128.092 136.054 127.873C136.354 127.851 136.581 127.587 136.559 127.287C136.537 126.987 136.273 126.76 135.973 126.782C132.716 127.023 129.576 128.429 127.116 130.749C126.831 131.02 126.274 131.123 125.674 131.013C125.279 130.94 124.862 130.786 124.488 130.515C124.173 130.288 123.785 129.893 123.617 129.278C123.463 128.722 123.5 127.99 123.939 127.031C124.51 126.526 128.302 123.32 133.111 122.536C133.411 122.485 133.616 122.207 133.565 121.907C133.514 121.607 133.236 121.409 132.935 121.453C127.804 122.295 123.888 125.611 123.207 126.211C122.073 126.533 121.026 126.24 120.33 125.413C119.664 124.615 119.511 123.51 119.95 122.675C119.964 122.646 121.531 119.952 129.085 117.361C129.371 117.266 129.524 116.951 129.429 116.666C129.334 116.38 129.019 116.226 128.734 116.322C121.677 118.745 119.555 121.307 119.093 121.987C116.143 123.334 112.769 126.855 112.623 127.009C112.418 127.221 112.425 127.55 112.63 127.763C112.637 127.77 112.637 127.777 112.644 127.785C112.747 127.887 112.886 127.938 113.025 127.938C113.069 127.938 113.113 127.924 113.164 127.909C113.259 127.887 113.355 127.843 113.428 127.763C113.435 127.748 114.035 127.119 114.928 126.306Z" fill="#F2B888"/>
<path d="M135.71 71.5601C133.023 72.1749 129.993 72.2555 126.684 71.787C127.065 73.0387 128.229 75.4762 131.537 75.3445C134.809 75.2127 135.549 72.7898 135.71 71.5601Z" fill="white"/>
<path d="M136.852 70.8281C136.844 70.6597 136.764 70.506 136.632 70.4035C136.5 70.301 136.325 70.2717 136.164 70.3157C133.323 71.0916 130.044 71.1941 126.406 70.6304C126.003 70.5645 125.586 70.506 125.44 70.9671C125.403 71.0843 125.411 71.2087 125.454 71.3185C125.594 72.0578 126.611 76.4425 131.281 76.4425C131.384 76.4425 131.486 76.4425 131.596 76.4352C136.983 76.2229 136.852 70.8793 136.852 70.8281ZM126.684 71.787C129.993 72.2555 133.023 72.1749 135.71 71.5601C135.549 72.7898 134.809 75.2127 131.545 75.3445C128.229 75.4762 127.065 73.0387 126.684 71.787Z" fill="black"/>
<path d="M163.204 58.9404C162.691 59.7896 161.725 61.2096 160.188 62.8786C160.788 63.1494 161.454 63.2885 162.149 63.2665C164.829 63.1714 166.629 61.6708 167.083 59.1234C167.435 57.147 166.117 55.5074 164.477 54.7534C164.433 55.8148 164.331 56.8835 164.148 57.9596C164.053 58.4646 163.672 58.8306 163.204 58.9404Z" fill="black"/>
<path d="M161.703 57.5499C161.886 56.4519 161.988 55.3612 162.01 54.2852C161.447 54.2925 160.927 54.3803 160.459 54.5633C159.28 55.0172 158.424 56.0712 157.933 57.9671C157.523 59.5482 157.948 60.9317 158.819 61.8906C160.32 60.2875 161.264 58.9333 161.754 58.1428C161.688 57.9525 161.666 57.7548 161.703 57.5499Z" fill="black"/>
<path d="M163.204 58.9404C163.489 58.472 163.636 58.1792 163.665 58.1133C163.862 57.7034 163.694 57.2129 163.284 57.0153C162.874 56.8177 162.384 56.986 162.186 57.3959C162.179 57.4106 162.04 57.6814 161.754 58.1353C161.264 58.9258 160.32 60.28 158.819 61.8831C156.308 64.5549 152.231 67.8928 146.031 70.4109C146.507 70.7695 146.822 71.3112 146.895 71.8382C153.373 69.1738 157.597 65.6821 160.188 62.8786C161.725 61.2096 162.691 59.7896 163.204 58.9404Z" fill="#898A8D"/>
<path d="M146.031 70.4106C145.475 69.9861 144.706 69.8104 143.857 70.1983C141.668 71.1938 138.982 71.9405 138.982 71.9405C137.386 72.7896 137.488 75.476 139.977 75.476C142.466 75.476 145.255 74.1292 146.499 73.0385C146.851 72.731 146.961 72.2918 146.902 71.8453C146.821 71.311 146.507 70.7693 146.031 70.4106Z" fill="black"/>
<path d="M50.1466 28.9505C50.7542 28.9505 51.2446 29.441 51.2446 30.0485C51.2446 30.6561 50.7542 31.1465 50.1466 31.1465H45.9156C46.472 42.6535 55.7317 51.9133 67.2387 52.4696V48.7291C67.2387 48.1215 67.7292 47.6311 68.3367 47.6311C68.9443 47.6311 69.4347 48.1215 69.4347 48.7291V52.4696C80.9417 51.9133 90.2015 42.6535 90.7578 31.1465H87.1125C86.5049 31.1465 86.0145 30.6561 86.0145 30.0485C86.0145 29.441 86.5049 28.9505 87.1125 28.9505H90.7578C90.2015 17.4435 80.9417 8.18376 69.4347 7.62744V11.2728C69.4347 11.8803 68.9443 12.3708 68.3367 12.3708C67.7292 12.3708 67.2387 11.8803 67.2387 11.2728V7.62744C55.7317 8.18376 46.472 17.4435 45.9156 28.9505H50.1466ZM72.004 38.6641L68.3221 45.3766H65.8553L70.1887 37.7931V37.5076H65.0867V35.4507H72.004V38.6641ZM68.549 20.7229L71.7405 16.9531H74.954V21.7989H76.4985V23.8265H74.954V26.8717H72.7434V23.8265H68.549V20.7229ZM60.175 20.1373C60.175 19.4638 60.3214 18.8709 60.6142 18.3585C60.907 17.8461 61.3242 17.4435 61.8586 17.158C62.3929 16.8726 63.0151 16.7335 63.7105 16.7335C64.2595 16.7335 64.7573 16.8213 65.2038 16.9897C65.6503 17.158 66.0309 17.3996 66.3457 17.7144C66.6092 17.9779 66.8142 18.2853 66.9533 18.644C67.0923 18.9954 67.1655 19.3833 67.1655 19.8006C67.1655 20.5545 66.9972 21.1987 66.6678 21.7184C66.3384 22.2454 65.7528 22.7212 64.911 23.1531L62.5174 24.5585V24.8587H67.1655V26.8717H60.5044V23.6435L63.6227 21.7038C64.0985 21.411 64.4279 21.1255 64.6109 20.84C64.8012 20.5545 64.8963 20.2471 64.8963 19.9177C64.8963 19.5883 64.7939 19.3101 64.5816 19.0832C64.362 18.8636 64.0765 18.7538 63.7178 18.7538C63.3152 18.7538 62.9932 18.8782 62.7589 19.1344C62.5247 19.3906 62.4149 19.742 62.4149 20.1812V20.4813H60.175V20.1373ZM57.9643 30.3999L78.98 29.031C79.5875 28.9944 80.1073 29.4483 80.1439 30.0558C80.1805 30.6634 79.7266 31.1831 79.1191 31.2197L58.1034 32.5886C58.0814 32.5886 58.0522 32.5886 58.0302 32.5886C57.4592 32.5886 56.9761 32.142 56.9322 31.5638C56.9029 30.9562 57.3641 30.4365 57.9643 30.3999Z" fill="#4FBDAB"/>
<path d="M72.7434 18.7612H72.4579L70.2034 21.5135V21.799H72.7434V18.7612Z" fill="#4FBDAB"/>
<path d="M40.7039 30.0484C40.7039 45.3106 53.0746 57.6813 68.3368 57.6813C83.5989 57.6813 95.9697 45.3106 95.9697 30.0484C95.9697 14.7863 83.5989 2.41553 68.3368 2.41553C53.0746 2.41553 40.7039 14.7863 40.7039 30.0484ZM68.3368 5.40208C81.93 5.40208 92.9831 16.4552 92.9831 30.0484C92.9831 43.6416 81.9226 54.6948 68.3368 54.6948C54.7509 54.6948 43.6904 43.6416 43.6904 30.0484C43.6904 16.4552 54.7436 5.40208 68.3368 5.40208Z" fill="#4FBDAB"/>
<path d="M68.3367 60.097C84.9018 60.097 98.3852 46.6209 98.3852 30.0485C98.3852 13.4761 84.9018 0 68.3367 0C51.7643 0 38.2882 13.4761 38.2882 30.0485C38.2882 46.6136 51.7643 60.097 68.3367 60.097ZM95.9696 30.0485C95.9696 45.3106 83.5989 57.6814 68.3367 57.6814C53.0746 57.6814 40.7038 45.3106 40.7038 30.0485C40.7038 14.7863 53.0746 2.41559 68.3367 2.41559C83.5989 2.41559 95.9696 14.7863 95.9696 30.0485Z" fill="white"/>
<path d="M68.3368 54.6946C81.93 54.6946 92.9831 43.6414 92.9831 30.0482C92.9831 16.455 81.9227 5.40186 68.3368 5.40186C54.7509 5.40186 43.6904 16.455 43.6904 30.0482C43.6904 43.6414 54.7436 54.6946 68.3368 54.6946ZM67.2388 7.62713V11.2725C67.2388 11.88 67.7292 12.3705 68.3368 12.3705C68.9443 12.3705 69.4348 11.88 69.4348 11.2725V7.62713C80.9418 8.18345 90.2016 17.4432 90.7579 28.9502H87.1125C86.505 28.9502 86.0145 29.4407 86.0145 30.0482C86.0145 30.6558 86.505 31.1462 87.1125 31.1462H90.7579C90.2016 42.6532 80.9418 51.913 69.4348 52.4693V48.7288C69.4348 48.1212 68.9443 47.6308 68.3368 47.6308C67.7292 47.6308 67.2388 48.1212 67.2388 48.7288V52.4693C55.7318 51.913 46.472 42.6532 45.9157 31.1462H50.1466C50.7542 31.1462 51.2446 30.6558 51.2446 30.0482C51.2446 29.4407 50.7542 28.9502 50.1466 28.9502H45.9157C46.472 17.4432 55.7318 8.18345 67.2388 7.62713Z" fill="#009581"/>
<path d="M62.4148 20.1811C62.4148 19.7346 62.532 19.3905 62.7589 19.1343C62.9931 18.8782 63.3079 18.7537 63.7178 18.7537C64.0765 18.7537 64.362 18.8635 64.5816 19.0831C64.7865 19.31 64.8963 19.5882 64.8963 19.9176C64.8963 20.247 64.8012 20.5544 64.6108 20.8399C64.4205 21.1254 64.0911 21.4109 63.6226 21.7037L60.5043 23.6435V26.8716H67.1801V24.8586H62.532V24.5585L64.9256 23.153C65.7674 22.7211 66.353 22.238 66.6824 21.7183C67.0118 21.1913 67.1801 20.5544 67.1801 19.8005C67.1801 19.3832 67.107 19.0026 66.9679 18.6439C66.8288 18.2926 66.6238 17.9778 66.3603 17.7143C66.0456 17.3995 65.6649 17.1653 65.2184 16.9896C64.7719 16.8212 64.2741 16.7334 63.7251 16.7334C63.0297 16.7334 62.4075 16.8725 61.8732 17.158C61.3315 17.4434 60.9216 17.8387 60.6288 18.3584C60.336 18.8708 60.1896 19.4637 60.1896 20.1372V20.4739H62.4295V20.1811H62.4148Z" fill="white"/>
<path d="M72.7433 26.8717H74.9539V23.8266H76.4984V21.7989H74.9539V16.9531H71.7405L68.549 20.7229V23.8266H72.7433V26.8717ZM70.2033 21.7989V21.5135L72.4578 18.7612H72.7433V21.7916H70.2033V21.7989Z" fill="white"/>
<path d="M65.094 37.5149H70.1887V37.7931L65.8553 45.3766H68.3221L72.0041 38.6642V35.458H65.094V37.5149Z" fill="white"/>
<path d="M58.0376 32.5884C58.0595 32.5884 58.0888 32.5884 58.1108 32.5884L79.1264 31.2195C79.734 31.1829 80.1878 30.6559 80.1512 30.0557C80.1146 29.4481 79.5876 28.9943 78.9873 29.0309L57.9717 30.3997C57.3641 30.4363 56.9103 30.9633 56.9469 31.5636C56.9835 32.1419 57.4666 32.5884 58.0376 32.5884Z" fill="#009581"/>
<path d="M207.885 50.3613C198.449 50.3613 190.8 58.0107 190.8 67.4461C190.8 76.8816 198.449 84.531 207.885 84.531C217.32 84.531 224.97 76.8816 224.97 67.4461C224.97 58.0107 217.328 50.3613 207.885 50.3613ZM209.1 75.22C208.434 75.908 207.336 75.908 206.67 75.22C201.531 69.9349 201.531 66.436 201.531 65.5137C201.531 62.0001 204.378 59.1599 207.885 59.1599C211.398 59.1599 214.239 62.0074 214.239 65.5137C214.246 66.436 214.246 69.9349 209.1 75.22Z" fill="#FF6900"/>
<path d="M207.885 62.7905C206.377 62.7905 205.162 64.013 205.162 65.5136C205.162 67.0142 206.384 68.2366 207.885 68.2366C209.393 68.2366 210.608 67.0142 210.608 65.5136C210.608 64.013 209.393 62.7905 207.885 62.7905Z" fill="#FF6900"/>
<path d="M207.885 47.9458C197.132 47.9458 188.384 56.6932 188.384 67.4462C188.384 78.1993 197.132 86.9466 207.885 86.9466C218.638 86.9466 227.385 78.1993 227.385 67.4462C227.385 56.6932 218.638 47.9458 207.885 47.9458ZM207.885 84.531C198.449 84.531 190.8 76.8817 190.8 67.4462C190.8 58.0108 198.449 50.3614 207.885 50.3614C217.32 50.3614 224.97 58.0108 224.97 67.4462C224.97 76.8817 217.328 84.531 207.885 84.531Z" fill="white"/>
<path d="M207.885 59.1528C204.371 59.1528 201.531 62.0003 201.531 65.5066C201.531 66.4289 201.531 69.9352 206.67 75.2129C207.336 75.9009 208.434 75.9009 209.1 75.2129C214.238 69.9278 214.238 66.4289 214.238 65.5066C214.246 62.0003 211.398 59.1528 207.885 59.1528ZM207.885 68.2369C206.377 68.2369 205.162 67.0145 205.162 65.5139C205.162 64.0133 206.384 62.7909 207.885 62.7909C209.393 62.7909 210.608 64.0133 210.608 65.5139C210.608 67.0145 209.393 68.2369 207.885 68.2369Z" fill="white"/>
</svg>
