<?xml version="1.0" encoding="UTF-8"?><svg id="Layer_1" xmlns="http://www.w3.org/2000/svg" width="655" height="504.76" viewBox="0 0 655 504.76"><path d="m243.6,151.84v-35.49c0-2.24,1.81-4.05,4.05-4.05h0c2.24,0,4.05,1.81,4.05,4.05v35.49c0,2.24-1.81,4.05-4.05,4.05h0c-2.24,0-4.05-1.81-4.05-4.05Z" style="fill:#dedede; stroke-width:0px;"/><rect x="-2.85" y="152.04" width="87.59" height="8.1" rx="4.05" ry="4.05" transform="translate(197.03 115.15) rotate(90)" style="fill:#dedede; stroke-width:0px;"/><rect x="40.94" y="42.05" width="206.42" height="386.65" rx="19.08" ry="19.08" style="fill:#dedede; stroke-width:0px;"/><path d="m52.86,73.97h182.59c2,0,3.63,1.63,3.63,3.63v316.99c0,2-1.63,3.63-3.63,3.63H52.86c-2,0-3.63-1.63-3.63-3.63V77.6c0-2,1.63-3.63,3.63-3.63Z" style="fill:#fff; stroke-width:0px;"/><path d="m239.07,77.6v15.51H49.23v-15.51c0-2,1.63-3.63,3.63-3.63h182.59c2,0,3.63,1.62,3.63,3.63Z" style="fill:#ebebeb; stroke-width:0px;"/><rect x="54.48" y="111.41" width="225.62" height="86.05" rx="14.13" ry="14.13" style="fill:#dedede; stroke-width:0px;"/><path d="m267.93,148.18h-128.09c-1.74,0-3.17-1.15-3.17-2.55h0c0-1.4,1.43-2.55,3.17-2.55h128.09c1.74,0,3.17,1.15,3.17,2.55h0c0,1.4-1.43,2.55-3.17,2.55Z" style="fill:#fff; stroke-width:0px;"/><path d="m267.93,159.58h-128.09c-1.74,0-3.17-1.15-3.17-2.55h0c0-1.4,1.43-2.55,3.17-2.55h128.09c1.74,0,3.17,1.15,3.17,2.55h0c0,1.4-1.43,2.55-3.17,2.55Z" style="fill:#fff; stroke-width:0px;"/><path d="m192.38,134.68h-52.09c-1.99,0-3.62-1.63-3.62-3.62h0c0-1.99,1.63-3.62,3.62-3.62h52.09c1.99,0,3.62,1.63,3.62,3.62h0c0,1.99-1.63,3.62-3.62,3.62Z" style="fill:#fff; stroke-width:0px;"/><path d="m236.38,134.68h-29.83c-1.99,0-3.62-1.63-3.62-3.62h0c0-1.99,1.63-3.62,3.62-3.62h29.83c1.99,0,3.62,1.63,3.62,3.62h0c0,1.99-1.63,3.62-3.62,3.62Z" style="fill:#fff; stroke-width:0px;"/><polygon points="146.8 166.14 150.28 173.19 158.05 174.32 152.43 179.8 153.75 187.54 146.8 183.88 139.85 187.54 141.18 179.8 135.55 174.32 143.33 173.19 146.8 166.14" style="fill:#ffb600; stroke-width:0px;"/><polygon points="175.07 166.14 178.54 173.19 186.31 174.32 180.69 179.8 182.02 187.54 175.07 183.88 168.12 187.54 169.44 179.8 163.82 174.32 171.59 173.19 175.07 166.14" style="fill:#ffb600; stroke-width:0px;"/><polygon points="203.33 166.14 206.81 173.19 214.58 174.32 208.95 179.8 210.28 187.54 203.33 183.88 196.38 187.54 197.71 179.8 192.08 174.32 199.86 173.19 203.33 166.14" style="fill:#ffb600; stroke-width:0px;"/><polygon points="231.6 166.14 235.07 173.19 242.84 174.32 237.22 179.8 238.55 187.54 231.6 183.88 224.64 187.54 225.97 179.8 220.35 174.32 228.12 173.19 231.6 166.14" style="fill:#ebebeb; stroke-width:0px;"/><polygon points="259.86 166.14 263.34 173.19 271.11 174.32 265.48 179.8 266.81 187.54 259.86 183.88 252.91 187.54 254.24 179.8 248.61 174.32 256.38 173.19 259.86 166.14" style="fill:#ebebeb; stroke-width:0px;"/><circle cx="93.78" cy="154.49" r="26.89" style="fill:#fff; stroke-width:0px;"/><rect x="104.29" y="206.62" width="225.62" height="86.05" rx="14.13" ry="14.13" style="fill:#dedede; stroke-width:0px;"/><path d="m317.74,243.39h-128.09c-1.74,0-3.17-1.15-3.17-2.55h0c0-1.4,1.43-2.55,3.17-2.55h128.09c1.74,0,3.17,1.15,3.17,2.55h0c0,1.4-1.43,2.55-3.17,2.55Z" style="fill:#fff; stroke-width:0px;"/><path d="m317.74,254.79h-128.09c-1.74,0-3.17-1.15-3.17-2.55h0c0-1.4,1.43-2.55,3.17-2.55h128.09c1.74,0,3.17,1.15,3.17,2.55h0c0,1.4-1.43,2.55-3.17,2.55Z" style="fill:#fff; stroke-width:0px;"/><path d="m242.19,229.89h-52.09c-1.99,0-3.62-1.63-3.62-3.62h0c0-1.99,1.63-3.62,3.62-3.62h52.09c1.99,0,3.62,1.63,3.62,3.62h0c0,1.99-1.63,3.62-3.62,3.62Z" style="fill:#fff; stroke-width:0px;"/><path d="m286.19,229.89h-29.83c-1.99,0-3.62-1.63-3.62-3.62h0c0-1.99,1.63-3.62,3.62-3.62h29.83c1.99,0,3.62,1.63,3.62,3.62h0c0,1.99-1.63,3.62-3.62,3.62Z" style="fill:#fff; stroke-width:0px;"/><polygon points="196.61 261.35 200.09 268.39 207.86 269.52 202.23 275.01 203.56 282.75 196.61 279.09 189.66 282.75 190.99 275.01 185.36 269.52 193.14 268.39 196.61 261.35" style="fill:#ffb600; stroke-width:0px;"/><polygon points="224.88 261.35 228.35 268.39 236.12 269.52 230.5 275.01 231.83 282.75 224.88 279.09 217.92 282.75 219.25 275.01 213.63 269.52 221.4 268.39 224.88 261.35" style="fill:#ffb600; stroke-width:0px;"/><polygon points="253.14 261.35 256.62 268.39 264.39 269.52 258.76 275.01 260.09 282.75 253.14 279.09 246.19 282.75 247.52 275.01 241.89 269.52 249.66 268.39 253.14 261.35" style="fill:#ffb600; stroke-width:0px;"/><polygon points="281.4 261.35 284.88 268.39 292.65 269.52 287.03 275.01 288.36 282.75 281.4 279.09 274.45 282.75 275.78 275.01 270.16 269.52 277.93 268.39 281.4 261.35" style="fill:#ffb600; stroke-width:0px;"/><polygon points="309.67 261.35 313.14 268.39 320.92 269.52 315.29 275.01 316.62 282.75 309.67 279.09 302.72 282.75 304.05 275.01 298.42 269.52 306.19 268.39 309.67 261.35" style="fill:#ebebeb; stroke-width:0px;"/><circle cx="143.59" cy="249.7" r="26.89" style="fill:#fff; stroke-width:0px;"/><rect x="57.67" y="301.67" width="225.62" height="86.05" rx="14.13" ry="14.13" style="fill:#dedede; stroke-width:0px;"/><path d="m271.13,338.44h-128.09c-1.74,0-3.17-1.15-3.17-2.55h0c0-1.4,1.43-2.55,3.17-2.55h128.09c1.74,0,3.17,1.15,3.17,2.55h0c0,1.4-1.43,2.55-3.17,2.55Z" style="fill:#fff; stroke-width:0px;"/><path d="m271.13,349.83h-128.09c-1.74,0-3.17-1.15-3.17-2.55h0c0-1.4,1.43-2.55,3.17-2.55h128.09c1.74,0,3.17,1.15,3.17,2.55h0c0,1.4-1.43,2.55-3.17,2.55Z" style="fill:#fff; stroke-width:0px;"/><path d="m195.57,324.93h-52.09c-1.99,0-3.62-1.63-3.62-3.62h0c0-1.99,1.63-3.62,3.62-3.62h52.09c1.99,0,3.62,1.63,3.62,3.62h0c0,1.99-1.63,3.62-3.62,3.62Z" style="fill:#fff; stroke-width:0px;"/><path d="m239.57,324.93h-29.83c-1.99,0-3.62-1.63-3.62-3.62h0c0-1.99,1.63-3.62,3.62-3.62h29.83c1.99,0,3.62,1.63,3.62,3.62h0c0,1.99-1.63,3.62-3.62,3.62Z" style="fill:#fff; stroke-width:0px;"/><polygon points="150 356.4 153.47 363.44 161.24 364.57 155.62 370.05 156.95 377.79 150 374.14 143.04 377.79 144.37 370.05 138.75 364.57 146.52 363.44 150 356.4" style="fill:#ffb600; stroke-width:0px;"/><polygon points="178.26 356.4 181.74 363.44 189.51 364.57 183.88 370.05 185.21 377.79 178.26 374.14 171.31 377.79 172.64 370.05 167.01 364.57 174.78 363.44 178.26 356.4" style="fill:#ffb600; stroke-width:0px;"/><polygon points="206.52 356.4 210 363.44 217.77 364.57 212.15 370.05 213.48 377.79 206.52 374.14 199.57 377.79 200.9 370.05 195.28 364.57 203.05 363.44 206.52 356.4" style="fill:#ffb600; stroke-width:0px;"/><polygon points="234.79 356.4 238.26 363.44 246.04 364.57 240.41 370.05 241.74 377.79 234.79 374.14 227.84 377.79 229.17 370.05 223.54 364.57 231.31 363.44 234.79 356.4" style="fill:#ebebeb; stroke-width:0px;"/><polygon points="263.05 356.4 266.53 363.44 274.3 364.57 268.68 370.05 270 377.79 263.05 374.14 256.1 377.79 257.43 370.05 251.81 364.57 259.58 363.44 263.05 356.4" style="fill:#ebebeb; stroke-width:0px;"/><circle cx="96.98" cy="344.74" r="26.89" style="fill:#fff; stroke-width:0px;"/><path d="m412.08,134.62c29.37-9.55,45.45-41.1,35.9-70.47-9.55-29.37-41.1-45.45-70.47-35.9-29.37,9.55-45.45,41.1-35.9,70.47.31.95.64,1.88.99,2.8l-15.57,28.9,28.43-9.24c14.4,14.23,36.04,20.13,56.62,13.44Z" style="fill:#dedede; stroke-width:0px;"/><polygon points="437.99 66.01 390.58 113.43 357.67 80.52 368.11 70.07 390.58 92.54 427.55 55.57 437.99 66.01" style="fill:#fff; stroke-width:0px;"/><path d="m358.98,213.16c-3.95-4.6-3.98-11.15-.11-19.65,4.02,2.04,5.4,5.12,7.56,9.24,23.73-7.62,17.73-31.54,7.88-31.82,24.11-4.6,38.68-1.97,49.69,10.83,3.72,11.82-.7,39.6-3.54,50.07-3,12.1-7.08,18.86-4.32,37-12.82,9.23-16.43,18.81-50.46,8.59.76-10.46,3.33-13.01,3.2-37.93.87-8.21-5.55-17.87-9.9-26.34h0Zm0,0" style="fill:#2d2d2d; fill-rule:evenodd; stroke-width:0px;"/><path d="m365.68,277.42c23.33,2.25,33.92-3.36,50.46-8.59,21.73,32.24,2.99,48.88,12.33,91.19-15.43,15.48-38.48,18.21-69.14,8.22-.73-25,1.9-61.75,6.35-90.82h0Zm0,0" style="fill:#d93954; fill-rule:evenodd; stroke-width:0px;"/><path d="m415.91,369.03c.32,5,.42,9.44,1.08,12.56,7.59,20.34,1.49,40.26-.32,97.09.27.73.56,1.41.87,2.06-3.81,1.67-3.33,5.35-5.59,6.16-10.58,3.82-6.2-2.93-7.93-4.81.47-1.17.89-2.32,1.25-3.44-.28-52.39-8.85-78.33-8.87-94.64-.1-2.48-.76-7.65-.97-9.99h.06c7.56-.39,14.37-2.06,20.42-5h0Zm0,0" style="fill:#ffb27d; fill-rule:evenodd; stroke-width:0px;"/><path d="m422.39,491.01c-2.37-5.64-1.23-10.77-3.79-10.64-4.95,1.41-4.2,5.65-6.65,6.54-11.98,4.33-4.76-4.91-9-5.27-9.25,3.81-13.9-.73-14.99,6.26.83,1.78,6.98,8.36,28.3,9.6,4.81-1.88,6.86-4.05,6.13-6.49h0Zm0,0" style="fill-rule:evenodd; stroke-width:0px;"/><path d="m390.89,374.11c-.59,5.84-1.32,10.34-1.81,13.75,8.64,17.59-.39,40.28-4.85,96.98.23.74.48,1.43.76,2.09-3.88,1.5-3.58,5.19-5.88,5.91-10.73,3.31-6.05-3.22-7.69-5.18.52-1.15.99-2.28,1.4-3.37-.74-53.98-1.99-86.55-3.73-97.72.03-5.26-.61-10.72-1.22-15.81,8.29,2.14,15.96,3.27,23.01,3.36h0Zm0,0" style="fill:#ffb27d; fill-rule:evenodd; stroke-width:0px;"/><path d="m391.32,497.51c-2.11-5.74-2.7-10.92-5.26-10.91-5.01,1.17-4.45,5.45-6.95,6.22-12.17,3.75-4.52-5.13-8.73-5.69-13.08,4.56-22.22,1.82-22.24,8.68,2.72,4.24,14.97,6.86,36.75,7.89,4.89-1.65,7.04-3.72,6.43-6.2h0Zm0,0" style="fill-rule:evenodd; stroke-width:0px;"/><path d="m366.42,202.75c23.73-7.62,17.73-31.54,7.88-31.82-9.61-1.21-11.86-.42-26.46-2.09-5.31,5.8-5.56,13.15-.76,22.02,14.38,1.2,15.8,5.13,19.35,11.89h0Zm0,0" style="fill:#2d2d2d; fill-rule:evenodd; stroke-width:0px;"/><path d="m345.76,171.6c-6.01.22-12.87-.1-20.56-.95-6.03-5.32-22.45-16.28-49.23-32.88-6.17-9.41-12.46-15.47-20.47-19.21-1.96.84-.8,2.18,5.58,8.3-4.28,9.11-.78,14.47,10.51,14.74,25.2,23.43,41.29,37.24,48.25,41.41,9.52,3.16,18.13,4.8,25.79,4.91-2.69-6.26-2.65-11.7.13-16.32h0Zm0,0" style="fill:#ffb27d; fill-rule:evenodd; stroke-width:0px;"/><path d="m418.75,238.02c9.18-1.46,12.07-5.54,11.27-18.86-1.73.69-4.56,1.53-7.28,2.02-.75,4.29-1.56,8.02-2.28,10.65-.31,1.23-1.39,5.05-1.71,6.19h0Zm0,0" style="fill:#ffb27d; fill-rule:evenodd; stroke-width:0px;"/><path d="m422.73,221.18c2.72-.5,4.94-1.08,6.66-1.77.45-.17.85-.34,1.22-.53,1.3-18.8-.92-31.17-6.62-37.12,2.79,8.85,1.01,26.64-1.26,39.42h0Zm0,0" style="fill:#2d2d2d; fill-rule:evenodd; stroke-width:0px;"/><path d="m395.88,160.46c12.38.69,18.46-6.16,18.23-20.56.38-1.45.64-2.84.75-4.16.75-8.04-3.3-13.76-12.16-17.15-20.71-7.17-29.62-4.05-26.72,6.54,1.95,4.35,4.91,7.65,8.87,9.9-1.13,2.05-1.52,4.37-1.12,6.92-.03.7.19,1.67.65,2.89.64-5.17,2.35-8.44,5.14-9.81,1.82,3.18,1.26,7.36-1.68,12.52-1.27,7.46,1.4,11.75,8.03,12.89h0Zm0,0" style="fill:#4a2f22; fill-rule:evenodd; stroke-width:0px;"/><path d="m421.09,157.84c2.64-.48,3.06,3.73,3.79,5.32,1.99-7.45.23-15.63-3.12-18.39,1.07.14,2.23.74,3.45,1.77.46-8.43-9.51-10.86-12.14-11.12-1.32-.14-2.29.61-2.9,2.25-3.77,10.96-1.78,20.49,5.98,28.59-1.46-2.13-2.02-4.66-1.68-7.57,2.67,8.45,7.43,10.48,14.29,6.08-5.68,1.72-6.68-.97-7.68-6.92h0Zm0,0" style="fill:#4a2f22; fill-rule:evenodd; stroke-width:0px;"/><path d="m412.88,135.42c-.93-1.35-2.33-2.39-4.29-2.06-3.11.98-3.54,5.09-1.29,6.38.64.46,1.36.62,2.04.69.23-.92.51-1.83.83-2.76.57-1.54,1.48-2.29,2.71-2.24h0Zm0,0" style="fill:#d93954; fill-rule:evenodd; stroke-width:0px;"/><path d="m404.2,169.84c-1.02-3.12-.85-6.63.51-10.54-2.46.95-5.4,1.35-8.83,1.16-6.63-1.15-9.3-5.44-8.03-12.89,2.94-5.17,3.5-9.34,1.68-12.52-2.79,1.37-4.51,4.65-5.14,9.81-.46-1.22-.68-2.19-.65-2.89-.4-2.56-.01-4.87,1.12-6.92-2.42-1.37-4.47-3.14-6.14-5.31-2.66,2.77-3.56,5.73-2.7,8.86-3.33,4.86-4.3,9.16-2.89,12.89-.23,3.95.08,6.66.93,8.15,1.35,2.38,8.31,1.26,10.74,1.11,1.03,2.57,1.21,5.41.56,8.52,7.19-.73,13.39-.57,18.84.59h0Zm0,0" style="fill:#ffb27d; fill-rule:evenodd; stroke-width:0px;"/><path d="m334.67,230.2l-.05,4.98,6.73,5.37c-.14-1.63.19-3.05.97-4.28l-7.65-6.07Zm16.34,18.06l10.88,8.69,6.48.12c.13-1.64.23-3.45.32-5.5l-6.98.08-10.36-8.22c-.03.34-.08.67-.15,1.03-.43,1.87-.5,3.14-.19,3.81h0Zm0,0" style="fill:#111; fill-rule:evenodd; stroke-width:0px;"/><path d="m334.67,230.2l7.65,6.07c.13-.19.27-.39.42-.57,1.15-1.21,2.95.28,6.54,2.86,1.53,1.36,2.21,2.98,2.08,4.88l10.36,8.21,6.98-.08c.09-2.09.15-4.42.18-7.03l-9.05.22-14.27-10.77h22.96c-.26-1.25-.64-2.51-1.08-3.78h-32.76Zm0,0" style="fill:#7d7d7d; fill-rule:evenodd; stroke-width:0px;"/><path d="m345.55,233.99l14.27,10.77,9.05-.22c.01-1.58.03-3.26.01-5.05.19-1.77.04-3.62-.37-5.5h-22.96Zm0,0" style="fill:#111; fill-rule:evenodd; stroke-width:0px;"/><path d="m334.67,230.2h32.76c-.42-1.2-.92-2.39-1.46-3.6l-28.31-.13-2.62-30.27h22.71c.33-.88.7-1.78,1.12-2.7-.15-.08-.32-.15-.47-.23l-27.05-.2,3.32,37.13Zm0,0" style="fill:#7d7d7d; fill-rule:evenodd; stroke-width:0px;"/><path d="m337.66,226.47l28.31.13c-2.05-4.56-4.79-9.15-6.99-13.44-3.53-4.1-3.93-9.75-1.23-16.95h-22.71l2.62,30.27Zm0,0" style="fill:#fff; fill-rule:evenodd; stroke-width:0px;"/><path d="m351.01,248.26c-3.65,2.02-6.76.13-9.29-5.7-.76-2.79-.42-5.07,1.02-6.86,1.15-1.21,2.95.28,6.54,2.86,1.8,1.59,2.43,3.55,1.92,5.89-.43,1.87-.5,3.14-.19,3.81h0Zm0,0" style="fill:#ffb27d; fill-rule:evenodd; stroke-width:0px;"/><path d="m405.97,154.98c-.27-4.58.41-9.53,2.01-14.87.45.19.92.27,1.36.32-1.45,5.55-1.35,10.72.29,15.5-1.34,1.49-2.98,2.61-4.93,3.37-2.46.95-5.4,1.35-8.83,1.16-4.34-.75-6.99-2.85-7.94-6.31,4.57,5.86,10.58,6.12,18.04.83h0Zm0,0" style="fill:#4a2f22; fill-rule:evenodd; stroke-width:0px;"/><path d="m613.01,473.4s4.29,4.25,4.39,5.8c.1,1.56.38,18.21-1.38,19.77-1.75,1.56-6.89,2.65-5.23,4.42,1.24,1.31,10.85,1.04,17.22.67,1.86-.09,4.19-15.13,4.92-17.32,1.08-3.21,4.93-10.2,3.95-12.43-.47-1.09-3.99-3.59-7.19-5.67-3.36-2.19-6.57-7.11-6.57-7.11l-10.12,11.87Zm0,0" style="fill:#ffb27d; fill-rule:evenodd; stroke-width:0px;"/><path d="m629.49,468.52s-8.96,27.53-12.82,28.87c-1.03.37-6.88,1.98-7.8,4.17l-.06.22c-.3,1.4.88,2.68,2.3,2.68h18.35s2.6-12.41,3.63-17.88c0,0,5.45-13.33,4.84-14.54-.61-1.23-8.44-3.52-8.44-3.52h0Zm0,0" style="fill:#111; fill-rule:evenodd; stroke-width:0px;"/><path d="m564.32,141.37c-.35,1.77,1.46,3.63,4.03,4.15,2.58.52,4.93-.48,5.26-2.25.35-1.77-1.46-3.63-4.03-4.15-2.56-.55-4.93.5-5.27,2.25h0Zm0,0" style="fill:#4f4021; fill-rule:evenodd; stroke-width:0px;"/><path d="m555.94,482.99l3.84,10.98c.28,1.77,1.4,6.05,1.4,7.63,0,5.95-26.44-5.04-20.52-7.66.54-.25,2.23-2.17,2.4-4.19.27-3.11-2.23-7.01-2.23-7.01l15.1.25Zm0,0" style="fill:#ffb27d; fill-rule:evenodd; stroke-width:0px;"/><path d="m562.69,503.58l-3.03-9.7s-6.36,2.71-9.54,2.26c-3.17-.46-9.38-2.26-9.38-2.26-12.7,4.21-23.09,6.28-21.2,9.7h43.15Zm0,0" style="fill:#111; fill-rule:evenodd; stroke-width:0px;"/><path d="m523.88,271.77l-5.1,27.8s-12.69,88.29-11.5,94.26c2.89,14.62,32.09,94.13,32.09,94.13l18.71-2.38-20.53-94.03,34.2-88.33-47.87-31.45Zm0,0" style="fill:#ffb600; fill-rule:evenodd; stroke-width:0px;"/><path d="m558.13,287.18l13.69,15.96,13.42,83.53,42.23,77.92s-6.34,9.76-13.17,11.29l-59.93-78.75-32.49-98.6,1.14-21.9,35.12,10.55Zm0,0" style="fill:#ffb600; fill-rule:evenodd; stroke-width:0px;"/><path d="m451.11,200.87c.27-.83,3.02-5.92,3.02-5.92,0,0,.14-8.45-.1-8.57-4.69-1.98-9.43.12-10.07,4.94v.15c-.15,9.07,4.6,17.46,12.31,21.79,1.77.97,3.63,2.01,5.55,3.07.1-3.63.59-7.2,1.75-10.64-7.02-2.44-12.56-4.52-12.46-4.82h0Zm0,0" style="fill:#ffb27d; fill-rule:evenodd; stroke-width:0px;"/><path d="m543.55,194.86c0-.46-51.37,13.35-51.37,13.35,0,0-18.09-5.97-31.37-10.64-1.36,4.11-2.02,8.39-2.23,12.69,12.33,7.09,26.45,14.89,29.94,15.81,6.52,1.65,43.68-3.82,43.68-3.82,0,0,11.35-27.06,11.35-27.39h0Zm0,0" style="fill:#2d2d2d; fill-rule:evenodd; stroke-width:0px;"/><path d="m509.93,300.6c.14-.73,1.39-35.29,9.56-63.83,6.34-22.11,19.26-39.47,23.8-41.89,1.67-.92,14.2.19,14.2.19l-6.55,5.76c-6.99,6.86-10.53,13.85-15.44,22.61-14.21,25.45-7.57,88.33-8.92,88.27-1.5-.1-17.21-8.21-16.65-11.11h0Zm0,0" style="fill:#2d2d2d; fill-rule:evenodd; stroke-width:0px;"/><path d="m452.91,158.86l-9.02,2.44,9.76,45.94,17.03-28.77-17.78-19.61Zm0,0" style="fill:#fff; fill-rule:evenodd; stroke-width:0px;"/><path d="m459.44,154.37l-.98,35.06,11.92-11.22-10.94-23.84Zm0,0" style="fill:#fff; fill-rule:evenodd; stroke-width:0px;"/><path d="m522.17,171.73l-1.47,29.2-51.21-22.98,52.69-6.22Zm0,0" style="fill:#fff; fill-rule:evenodd; stroke-width:0px;"/><path d="m442.84,160.93l9.07,77.22c.04.33.24.67.52.85l18.56,12.85-4.77-75.05-21.57-16.91c-.79-.63-1.92.04-1.81,1.04h0Zm0,0" style="fill:#dedede; fill-rule:evenodd; stroke-width:0px;"/><path d="m567.41,133.53s8.23-6.01,11.98,4.09c0,0,4.68-1.59,6.8,3.36,0,0,8.08-.82,7.68,11.3,0,0,4.06.02,3.65,4.91-.4,4.92-3.38,7.63-3.38,7.63,0,0,1.88,2.13.04,6.34-1.57,3.57-4.7,3.54-4.7,3.54,0,0-2.02,6.16-5.05,7.49-3.02,1.38-6.48-.27-6.48-.27,0,0-1.61,3.23-4.66,2.29-3.05-.94-6.31-4.76-10.05-4.09-3.74.64-12.49-2.63-12.49-2.63,0,0-9.24-6.68-4.16-16.75,0,0-4.39-6.01,1.41-11.01,0,0-1.62-9.97,6.17-14.06,7.78-4.13,13.23-2.14,13.23-2.14h0Zm0,0" style="fill:#464646; fill-rule:evenodd; stroke-width:0px;"/><path d="m555.54,194.83l16.37.98s4.35,5.36,4.5,5.4c1.71.33-5.95,68.16-7.5,93.3-1.55,25.17-7.89,18.12-7.89,18.12,0,0-17.48,6.47-33.47,1.67-16.62-4.97-10.98-26.03-10.98-26.03,0,0,10.39-46.1,16.08-60.19,5.69-14.15,22.89-33.25,22.89-33.25h0Zm0,0" style="fill:#f5fafa; fill-rule:evenodd; stroke-width:0px;"/><path d="m558.95,183.87l-2.58,7.78-.46,1.38s-5.35,13-2.3,16.32c3.05,3.33,18.3-13.54,18.3-13.54l3.32-24.01-16.28,12.08Zm0,0" style="fill:#f2a672; fill-rule:evenodd; stroke-width:0px;"/><path d="m571.82,145.1c-6.71-4.03-15.34-.64-17.9,6.78-1.12,3.2-2.34,7.28-3.3,11.87-2.3,10.91,1.18,22.72,6.02,23.74,4.84.97,19.6-3.42,23.08-18.92,2.14-9.55-.85-19.25-7.9-23.46h0Zm0,0" style="fill:#ffb27d; fill-rule:evenodd; stroke-width:0px;"/><path d="m575.91,169.08c-.46,2.4.72,4.7,2.65,5.09,1.92.4,3.85-1.25,4.32-3.69.47-2.42-.72-4.7-2.64-5.09-1.93-.4-3.87,1.24-4.34,3.69h0Zm0,0" style="fill:#ffb27d; fill-rule:evenodd; stroke-width:0px;"/><path d="m551.87,135.36c-5.79,3.08-8.73,8.91-6.58,13.06,2.17,4.15,8.61,5,14.4,1.96,5.79-3.05,8.73-8.91,6.57-13.06-2.16-4.15-8.6-5.01-14.38-1.96h0Zm0,0" style="fill:#464646; fill-rule:evenodd; stroke-width:0px;"/><path d="m547.87,152.21c-.43,2.28.99,4.48,3.18,4.94,2.18.42,4.32-1.04,4.76-3.33.43-2.29-.99-4.48-3.18-4.94-2.18-.42-4.32,1.04-4.76,3.33h0Zm0,0" style="fill:#464646; fill-rule:evenodd; stroke-width:0px;"/><path d="m571.91,195.8s15.88,2.63,20.23,6.59c2.76,2.5-2.22,32-2.22,32,0,0-9.02,28.49-9.72,37.13-2.4,29.38-1.18,56.23-2.6,57.21-8.34,3.29-37.41-.92-38.64-4.27-13.58-37.04,32.95-128.65,32.95-128.65h0Zm0,0" style="fill:#2d2d2d; fill-rule:evenodd; stroke-width:0px;"/><path d="m587.74,233.21s-30.57,42.84-38.8,45.61c-8.23,2.75-22.55-54.58-22.55-54.58,0,0-10.82-12.05-11.72-12.45-3.62-1.61,8.51.37,8.51.37l5.38-11.78s.53.31,2.68,5.46c2.91,6.96,4.25,16.66,5.69,18.71l14.87,22.32,20.86-29.77,15.09,16.11Zm0,0" style="fill:#ffb27d; fill-rule:evenodd; stroke-width:0px;"/><path d="m466.22,176.8l6.45,1.49,4.62,77.71-6.31-4.15-4.77-75.05Zm0,0" style="fill:#fff; fill-rule:evenodd; stroke-width:0px;"/><path d="m525.81,257.59c-.16,1.44-48.51-1.59-48.51-1.59l-4.62-77.71,56.22-.42c1.35,0-3.09,79.72-3.09,79.72h0Zm0,0" style="fill:#dedede; fill-rule:evenodd; stroke-width:0px;"/><path d="m536.18,221.06l-8.89,9.82s11.46,51.5,20.03,51.81c8.59.27,38.3-41.07,44.75-53.08,6.44-11.99,5.07-24.23-.79-28.07-5.86-3.82-14.43,5.64-17.91,9.7-3.49,4.09-21.57,35.63-21.57,35.63l-15.61-25.8Zm0,0" style="fill:#2d2d2d; fill-rule:evenodd; stroke-width:0px;"/><path d="m446.03,190.92s-.4-2.04-.36-3.17c.02-1.16,7.43-2.66,9.37-.16,1.92,2.48-5.48,2.75-9.01,3.33h0Zm0,0" style="fill:#ffb27d; fill-rule:evenodd; stroke-width:0px;"/><path d="m444.92,195.2s-1.02-2.21-.98-3.36c.04-1.16,9.71-2.63,11.63-.12,1.93,2.5-7.11,2.92-10.65,3.48h0Zm0,0" style="fill:#ffb27d; fill-rule:evenodd; stroke-width:0px;"/><path d="m446.83,199.1s-1.03-2.23-.99-3.39c.04-1.13,7.43-2.61,9.37-.15,1.93,2.5-4.84,2.96-8.37,3.54h0Zm0,0" style="fill:#ffb27d; fill-rule:evenodd; stroke-width:0px;"/><path d="m529.2,205.99l-2.14-.85c-.61-.17-1.2-.45-1.76-.82-2.22-1.34-8.31-4.92-9.25-3.75-1.15,1.44,8.25,6.8,8.25,6.8,0,0-10.53-5.24-11.15-3.32-.62,1.92,10.24,6.74,10.24,6.74,0,0-9.65-3.69-10.18-2.65-.53,1.04,10.63,8.3,10.63,8.3,0,0-9.14-5.59-10.54-4.61-1.39.94,14.17,16.35,14.17,16.35l1.73-22.19Zm0,0" style="fill:#ffb27d; fill-rule:evenodd; stroke-width:0px;"/><path d="m446.83,199.1s6.39-1.29,7.5.19c1.1,1.46-6.44,4.09-6.44,4.09l.17,1.94s-2.87-4.39-1.23-6.22h0Zm0,0" style="fill:#ffb27d; fill-rule:evenodd; stroke-width:0px;"/><polygon points="1 352.35 77.19 428.54 1 428.54 1 352.35" style="fill:#eb8c00; fill-rule:evenodd; stroke-width:0px;"/><polygon points="77.19 428.54 1 504.73 77.19 504.73 77.19 428.54" style="fill:#ffb600; fill-rule:evenodd; stroke-width:0px;"/><polygon points="77.19 504.73 153.38 428.54 77.19 428.54 77.19 504.73" style="fill:#d93954; fill-rule:evenodd; stroke-width:0px;"/></svg>